<?xml version="1.0" encoding="UTF-8"?>
<svg width="19px" height="19px" viewBox="0 0 19 19" version="1.1" xmlns="http://www.w3.org/2000/svg" xmlns:xlink="http://www.w3.org/1999/xlink">
    <!-- Generator: Sketch 52.5 (67469) - http://www.bohemiancoding.com/sketch -->
    <title>账单ICON</title>
    <desc>Created with Sketch.</desc>
    <g id="Page-1" stroke="none" stroke-width="1" fill="none" fill-rule="evenodd" opacity="0.8">
        <g id="费用明细" transform="translate(-56.000000, -280.000000)" fill="#79B5F9" fill-rule="nonzero">
            <g id="侧边栏">
                <g id="子项目账单" transform="translate(56.000000, 277.000000)">
                    <g id="账单ICON" transform="translate(0.000000, 3.000000)">
                        <g id="分组">
                            <path d="M15.7891583,8.86429168 C13.3247,7.76704168 10.4422416,8.6979625 9.0532625,11.0391979 C7.66384793,13.3804334 8.19941043,16.4057084 10.30465,18.1081875 C10.0059542,18.2422958 9.65805625,18.1952708 9.40464375,17.9862708 L8.1833,16.997875 L7.08953332,17.9862708 C6.93444329,18.1241532 6.73361459,18.1994252 6.52610418,18.1974479 C6.32058965,18.1992255 6.12171083,18.1247623 5.9679,17.9884479 L4.87631043,17.0000521 L3.77209375,17.9971562 C3.61690265,18.1342978 3.41663632,18.2094752 3.20953543,18.2083333 C3.00367024,18.2106195 2.80434172,18.1361041 2.65046043,17.9993333 L1.36902918,16.841125 C1.32904681,16.8058907 1.29377722,16.7656453 1.26409375,16.7213854 C0.971139988,16.5076424 0.796072354,16.1683177 0.791666675,15.8057042 L0.791666675,1.66554793 C0.791666675,1.18354168 1.17744582,0.791666675 1.64116457,0.791666675 L14.9396604,0.791666675 C15.4090396,0.791666675 15.7891584,1.18005835 15.7891583,1.66554793 L15.7891583,8.86429168 Z M2.50590207,8.09665207 C2.50590207,8.32655207 2.69313125,8.5255375 2.92346668,8.5255375 L6.8012875,8.5255375 C7.04033125,8.5255375 7.2192875,8.33395418 7.2192875,8.09665207 C7.21983568,7.8636337 7.03423147,7.67280937 6.8012875,7.66689582 L2.92346668,7.66689582 C2.81126508,7.66643397 2.70372042,7.71171593 2.62564168,7.79229582 C2.54669836,7.87387176 2.5035942,7.98359145 2.50590207,8.0970875 L2.50590207,8.09665207 Z M2.50590207,11.5333958 C2.50590207,11.7641666 2.69008332,11.9631521 2.91824168,11.9631521 L5.9496125,11.9631521 C6.06078454,11.9616241 6.16668249,11.9154997 6.24351875,11.8351396 C6.32118892,11.754045 6.36387988,11.6456756 6.3623875,11.5333958 C6.36415214,11.3020387 6.18086767,11.1116007 5.9496125,11.1045104 L2.91824168,11.1045104 C2.68613251,11.1095102 2.50177099,11.3012696 2.50590207,11.5333958 Z M2.50590207,4.22928125 C2.50590207,4.46005207 2.6944375,4.6590375 2.92782082,4.6590375 L8.51116875,4.6590375 C8.74672918,4.6590375 8.93352293,4.46658332 8.93352293,4.22928125 C8.93379548,3.9946249 8.74579045,3.80313111 8.51116875,3.79908957 L2.92782082,3.79908957 C2.81511555,3.79865649 2.70704163,3.84389674 2.62825418,3.92448957 C2.54876637,4.0059076 2.50477242,4.11550107 2.50590207,4.22928125 Z" id="形状"></path>
                            <path d="M13.8541667,18.2083333 C11.4493604,18.2083333 9.5,16.2589729 9.5,13.8541667 C9.5,11.4493605 11.4493604,9.5 13.8541667,9.5 C16.2589729,9.5 18.2083334,11.4493604 18.2083333,13.8541667 C18.2083333,16.2589729 16.2589729,18.2083334 13.8541667,18.2083333 Z M15.9084625,13.7953854 C16.0438738,13.8059191 16.1737575,13.7396412 16.2446885,13.6238139 C16.3156195,13.5079866 16.3156195,13.3621697 16.2446885,13.2463424 C16.1737575,13.1305151 16.0438738,13.0642371 15.9084625,13.0747708 L14.9697042,13.0747708 L15.90585,12.1408021 C15.9743254,12.0732945 16.0128769,11.9811517 16.0128769,11.8849948 C16.0128769,11.7888379 15.9743254,11.6966951 15.90585,11.6291875 C15.7638739,11.4896035 15.5362115,11.4896035 15.3942354,11.6291875 L14.0631667,12.9550312 L12.7329688,11.6300583 C12.6288426,11.5269181 12.4730628,11.4961872 12.3375686,11.5520572 C12.2020743,11.6079272 12.1132302,11.7395269 12.1120646,11.8860833 C12.1120646,11.981875 12.1508166,12.0741833 12.2191771,12.1416729 L13.1575,13.0747708 L12.2801354,13.0747708 C12.0893218,13.0862581 11.9404568,13.2443545 11.9404568,13.4355135 C11.9404568,13.6266726 12.0893218,13.784769 12.2801354,13.7962562 L13.7313792,13.7962562 L13.7313792,14.5181771 L12.2788292,14.5181771 C12.0792358,14.5181771 11.9174333,14.6799795 11.9174333,14.8795729 C11.9174333,15.0791663 12.0792358,15.2409687 12.2788292,15.2409687 L13.7309438,15.2409687 L13.7309438,16.0821937 C13.7309438,16.2827491 13.8935259,16.4453312 14.0940813,16.4453312 C14.2946366,16.4453312 14.4572188,16.2827491 14.4572188,16.0821937 L14.4572188,15.2409687 L15.9080271,15.2409687 C16.1076205,15.2409687 16.2694229,15.0791663 16.2694229,14.8795729 C16.2694229,14.6799795 16.1076205,14.5181771 15.9080271,14.5181771 L14.4572188,14.5181771 L14.4572188,13.7953854 L15.9084625,13.7953854 Z" id="形状"></path>
                        </g>
                    </g>
                </g>
            </g>
        </g>
    </g>
</svg>