<?xml version="1.0" encoding="UTF-8"?>
<svg width="18px" height="18px" viewBox="0 0 18 18" version="1.1" xmlns="http://www.w3.org/2000/svg" xmlns:xlink="http://www.w3.org/1999/xlink">
    <!-- Generator: Sketch 52.5 (67469) - http://www.bohemiancoding.com/sketch -->
    <title>总览（默认）</title>
    <desc>Created with Sketch.</desc>
    <g id="Page-1" stroke="none" stroke-width="1" fill="none" fill-rule="evenodd">
        <g id="子项目账单" transform="translate(-55.000000, -147.000000)">
            <g id="侧边栏">
                <g id="总览（默认）" transform="translate(54.000000, 143.000000)">
                    <g transform="translate(0.000000, 3.000000)" id="分组">
                        <g>
                            <rect id="矩形" fill="#FFFFFF" opacity="0" x="0" y="0" width="20" height="20"></rect>
                            <path d="M6.50904297,5.26226562 C6.50904297,5.90546875 5.98798828,6.42654297 5.34476563,6.42654297 L3.01609375,6.42654297 C2.37279297,6.42654297 1.85181641,5.90548828 1.85181641,5.26226562 L1.85181641,2.93359375 C1.85181641,2.29029297 2.3734375,1.76931641 3.01609375,1.76931641 L5.34476563,1.76931641 C5.98796875,1.76931641 6.50904297,2.29029297 6.50904297,2.93359375 L6.50904297,5.26226562 Z M12.3305469,5.26226562 C12.3305469,5.90546875 11.8094922,6.42654297 11.1662695,6.42654297 L8.83759766,6.42654297 C8.19429688,6.42654297 7.67332031,5.90548828 7.67332031,5.26226562 L7.67332031,2.93359375 C7.67332031,2.29029297 8.19429688,1.76931641 8.83759766,1.76931641 L11.1662695,1.76931641 C11.8094727,1.76931641 12.3305469,2.29029297 12.3305469,2.93359375 L12.3305469,5.26226562 Z M18.1519922,5.26226562 C18.1519922,5.90546875 17.6309375,6.42654297 16.9877148,6.42654297 L14.6590234,6.42654297 C14.0157227,6.42654297 13.4947461,5.90548828 13.4947461,5.26226562 L13.4947461,2.93359375 C13.4947461,2.29029297 14.0163672,1.76931641 14.6590234,1.76931641 L16.9876953,1.76931641 C17.6308984,1.76931641 18.1519727,2.29029297 18.1519727,2.93359375 L18.1519727,5.26226562 L18.1519922,5.26226562 Z M6.50904297,11.08375 C6.50904297,11.7269531 5.98798828,12.2480273 5.34476563,12.2480273 L3.01609375,12.2480273 C2.37279297,12.2480273 1.85181641,11.7269727 1.85181641,11.08375 L1.85181641,8.75507813 C1.85181641,8.11177734 2.3734375,7.59080078 3.01609375,7.59080078 L5.34476563,7.59080078 C5.98796875,7.59080078 6.50904297,8.11177734 6.50904297,8.75507813 L6.50904297,11.08375 Z M12.3305469,11.08375 C12.3305469,11.7269531 11.8094922,12.2480273 11.1662695,12.2480273 L8.83759766,12.2480273 C8.19429688,12.2480273 7.67332031,11.7269727 7.67332031,11.08375 L7.67332031,8.75507813 C7.67332031,8.11177734 8.19429688,7.59080078 8.83759766,7.59080078 L11.1662695,7.59080078 C11.8094727,7.59080078 12.3305469,8.11177734 12.3305469,8.75507813 L12.3305469,11.08375 Z M18.1519922,11.08375 C18.1519922,11.7269531 17.6309375,12.2480273 16.9877148,12.2480273 L14.6590234,12.2480273 C14.0157227,12.2480273 13.4947461,11.7269727 13.4947461,11.08375 L13.4947461,8.75507813 C13.4947461,8.11177734 14.0163672,7.59080078 14.6590234,7.59080078 L16.9876953,7.59080078 C17.6308984,7.59080078 18.1519727,8.11177734 18.1519727,8.75507813 L18.1519727,11.08375 L18.1519922,11.08375 Z M6.50904297,16.9052148 C6.50904297,17.548418 5.98798828,18.0694922 5.34476563,18.0694922 L3.01609375,18.0694922 C2.37279297,18.0694922 1.85181641,17.5484375 1.85181641,16.9052148 L1.85181641,14.576543 C1.85181641,13.9332422 2.3734375,13.4122656 3.01609375,13.4122656 L5.34476563,13.4122656 C5.98796875,13.4122656 6.50904297,13.9332422 6.50904297,14.576543 L6.50904297,16.9052148 Z M12.3305469,16.9052148 C12.3305469,17.548418 11.8094922,18.0694922 11.1662695,18.0694922 L8.83759766,18.0694922 C8.19429688,18.0694922 7.67332031,17.5484375 7.67332031,16.9052148 L7.67332031,14.576543 C7.67332031,13.9332422 8.19429688,13.4122656 8.83759766,13.4122656 L11.1662695,13.4122656 C11.8094727,13.4122656 12.3305469,13.9332422 12.3305469,14.576543 L12.3305469,16.9052148 Z M18.1519922,16.9052148 C18.1519922,17.548418 17.6309375,18.0694922 16.9877148,18.0694922 L14.6590234,18.0694922 C14.0157227,18.0694922 13.4947461,17.5484375 13.4947461,16.9052148 L13.4947461,14.576543 C13.4947461,13.9332422 14.0163672,13.4122656 14.6590234,13.4122656 L16.9876953,13.4122656 C17.6308984,13.4122656 18.1519727,13.9332422 18.1519727,14.576543 L18.1519727,16.9052148 L18.1519922,16.9052148 Z" id="形状" fill="#79B5F9" fill-rule="nonzero"></path>
                        </g>
                    </g>
                </g>
            </g>
        </g>
    </g>
</svg>